<svg xmlns="http://www.w3.org/2000/svg" viewBox="0 0 512 512"><rect width="512" height="512" rx="50" ry="50" fill="#b1a000"/><path d="M39.336 92.529L39.336 92.529Q25.032 92.529 14.751 78.225L14.751 78.225Q10.281 71.967 10.281 61.686L10.281 61.686Q10.281 50.511 14.751 37.325Q19.221 24.138 26.149 10.728Q33.078-2.682 40.230-14.304Q47.382-25.926 52.746-33.972L52.746-33.972Q62.133-49.617 76.884-71.073Q91.635-92.529 107.056-114.432Q122.478-136.335 134.100-153.768L134.100-153.768Q155.109-185.505 172.542-217.019Q189.975-248.532 198.468-278.034L198.468-278.034Q201.597-279.822 206.514-281.834Q211.431-283.845 215.007-283.398L215.007-283.398Q221.712-280.716 222.606-274.905L222.606-274.905L228.864-275.352Q238.251-274.905 238.251-265.965L238.251-265.965Q238.251-263.283 237.357-259.930Q236.463-256.578 235.122-253.002L235.122-253.002Q231.099-244.509 225.512-227.299Q219.924-210.090 213.889-188.187Q207.855-166.284 202.491-143.487Q197.127-120.690 193.998-101.469L193.998-101.469Q190.869-84.483 188.858-67.050Q186.846-49.617 186.846-33.972L186.846-33.972Q186.846-9.834 192.881 6.705Q198.915 23.244 214.560 23.244L214.560 23.244Q224.394 23.244 238.251 10.728L238.251 10.728Q252.555-1.788 268.423-23.244Q284.292-44.700 300.831-73.308L300.831-73.308Q316.923-101.469 330.780-132.312L330.780-132.312Q344.190-163.155 354.024-194.221Q363.858-225.288 366.987-252.555L366.987-252.555Q367.434-257.919 367.881-265.071Q368.328-272.223 368.328-279.822L368.328-279.822Q368.328-286.080 367.881-291.891Q367.434-297.702 366.540-302.619L366.540-302.619Q362.517-320.946 350.001-320.946L350.001-320.946Q342.849-320.946 331.674-313.347L331.674-313.347Q328.098-310.665 328.098-312.900L328.098-312.900Q328.098-315.135 330.333-318.711L330.333-318.711Q335.697-322.287 343.072-326.757Q350.448-331.227 358.494-331.227L358.494-331.227Q380.844-331.227 390.901-316.476Q400.959-301.725 400.959-280.269L400.959-280.269Q400.959-255.684 392.019-223.276Q383.079-190.869 368.775-155.556L368.775-155.556Q356.259-124.713 340.614-94.094Q324.969-63.474 307.536-37.101L307.536-37.101Q295.467-18.774 279.599-2.905Q263.730 12.963 246.744 22.573Q229.758 32.184 215.007 32.184L215.007 32.184Q198.468 32.184 189.975 20.562L189.975 20.562Q180.588 8.940 176.565-10.505Q172.542-29.949 172.542-54.981L172.542-54.981Q172.542-65.709 173.213-77.108Q173.883-88.506 175.224-100.128L175.224-100.128Q177.459-125.607 181.929-151.310Q186.399-177.012 191.316-199.362L191.316-199.362Q184.611-189.081 173.213-173.883Q161.814-158.685 149.522-142.146Q137.229-125.607 127.395-112.644L127.395-112.644Q108.621-86.718 88.506-56.769Q68.391-26.820 48.723 8.046L48.723 8.046Q46.488 12.069 41.794 19.892Q37.101 27.714 32.184 36.877Q27.267 46.041 23.915 54.981Q20.562 63.921 20.562 69.732L20.562 69.732Q20.562 75.096 24.138 76.437L24.138 76.437Q27.267 78.225 31.737 78.225L31.737 78.225Q39.783 78.225 49.617 73.308Q59.451 68.391 69.508 62.357Q79.566 56.322 88.059 52.746L88.059 52.746Q88.506 52.299 89.400 52.299L89.400 52.299Q88.059 52.299 82.248 58.334Q76.437 64.368 70.626 71.073Q64.815 77.778 62.580 80.907L62.580 80.907Q52.299 92.529 39.336 92.529ZM52.299-154.662L52.299-154.662Q47.382-154.662 38.218-158.685Q29.055-162.708 21.680-170.754Q14.304-178.800 14.304-189.975L14.304-189.975Q14.304-202.044 18.997-212.325Q23.691-222.606 32.184-231.546L32.184-231.546Q48.276-247.638 71.743-258.813Q95.211-269.988 122.925-276.246L122.925-276.246Q150.192-282.504 174.777-286.080L174.777-286.080Q194.892-289.209 214.560-290.327Q234.228-291.444 241.380-291.891L241.380-291.891L242.721-291.891Q247.638-291.891 247.638-290.103L247.638-290.103Q247.638-286.974 239.592-286.974L239.592-286.974Q231.099-286.974 221.712-286.750Q212.325-286.527 201.597-285.186L201.597-285.186Q181.482-282.057 160.250-275.799Q139.017-269.541 118.902-260.154L118.902-260.154Q98.340-250.767 82.248-238.698L82.248-238.698Q65.709-226.182 55.205-210.984Q44.700-195.786 43.359-178.353L43.359-178.353Q42.912-177.012 42.912-173.436L42.912-173.436Q42.912-168.966 45.370-164.273Q47.829-159.579 53.640-157.791L53.640-157.791Q55.875-156.003 54.981-155.109Q54.087-154.215 52.299-154.662Z" fill="#008989" transform="translate(50.379995346069336, 375.34898376464844)"/></svg>